<svg width="32" height="32" viewBox="0 0 32 32" fill="none" xmlns="http://www.w3.org/2000/svg">
<rect width="32" height="32" fill="#1D1D1C"/>
<path d="M23.7178 23.4166C24.8327 24.4243 24.8748 26.1637 23.8097 27.2288C22.7446 28.2939 21.0014 28.248 19.9937 27.1292L15.0437 21.6351L18.1317 18.3555L23.7178 23.4166ZM21.1661 26.0833C21.5875 26.5009 22.2734 26.5047 22.6948 26.0871C23.1201 25.6618 23.1163 24.976 22.6948 24.5546C22.2734 24.1331 21.5914 24.1331 21.1661 24.5584C20.7485 24.9798 20.7485 25.6618 21.1661 26.0833Z" fill="#F9BD25"/>
<path d="M10.6735 16.7777C10.5471 16.6398 10.3517 16.5861 10.1716 16.6359C5.89083 17.7904 3.3882 14.1473 4.12978 11.1127C4.19971 10.8265 4.56455 10.7339 4.77285 10.9422L7.15251 13.3218C7.34408 13.5134 7.65441 13.5134 7.84982 13.3218L9.89192 11.2759C10.0835 11.0843 10.0835 10.774 9.89192 10.5786L7.45843 8.1451C7.25416 7.94083 7.34318 7.60017 7.6165 7.50664C10.3024 6.58745 14.4753 9.06306 13.252 13.5555C13.2022 13.7394 13.252 13.931 13.3938 14.0574C13.4337 14.0937 14.3389 14.9171 14.2826 14.8659L11.3976 17.5823L10.6735 16.7777Z" fill="#F9BD25"/>
<path d="M17.8598 12.543L20.2161 14.8992C20.2352 14.9184 20.2544 14.9375 20.2773 14.9567L9.14734 26.7649C8.28742 27.6704 6.86729 27.6725 6.00564 26.8109C5.13592 25.9373 5.1551 24.5159 6.05545 23.6692L17.8598 12.543Z" fill="#F9BD25"/>
<path d="M23.7138 17.3147L22.7406 16.3415C22.5122 16.1131 22.5122 15.7428 22.7406 15.5144L23.0106 15.2444C23.3129 14.9421 23.3708 14.4492 23.1002 14.1184C22.7889 13.7379 22.2267 13.7171 21.8879 14.0558L21.585 14.3588C21.3566 14.5872 20.9863 14.5872 20.7579 14.3588L17.7963 11.3972C17.452 11.0529 17.4517 10.495 17.796 10.1507L18.6293 9.31734C19.0874 8.85925 19.0924 8.29999 18.7489 7.95624C17.7462 6.95267 16.5104 6.0778 15.0873 5.30632C14.9428 5.22796 14.9934 5.00885 15.1577 5.00377C16.6275 4.9585 17.9762 5.32248 19.2327 5.99811C20.6221 6.74522 21.4029 7.64993 24.4938 10.3844C24.7461 10.6076 24.7598 10.999 24.5216 11.2373L24.3327 11.4261C24.0264 11.7324 23.9677 12.2319 24.242 12.5671C24.5574 12.9527 25.1271 12.9738 25.4704 12.6305L25.7195 12.3815C25.9479 12.1531 26.3181 12.1531 26.5465 12.3815L27.5968 13.4318C27.8011 13.636 27.8011 13.9672 27.5968 14.1714L24.4534 17.3147C24.2492 17.519 23.9181 17.519 23.7138 17.3147Z" fill="#F9BD25"/>
</svg>
