<svg width="32" height="32" viewBox="0 0 32 32" fill="none" xmlns="http://www.w3.org/2000/svg">
<rect width="32" height="32" rx="6" fill="#1D1D1C"/>
<g transform="translate(16 16.4) scale(0.286) translate(-131.5 -44)">
<path d="M149.097 65.5461C151.552 67.8438 151.644 71.8128 149.301 74.2432C146.955 76.6736 143.117 76.5681 140.899 74.0151L130 61.4818L136.802 54L149.104 65.5461H149.097ZM143.479 71.629C144.405 72.5821 145.917 72.5889 146.847 71.6392C147.783 70.6691 147.773 69.1032 146.847 68.1433C145.92 67.1834 144.415 67.1834 143.479 68.1535C142.559 69.1135 142.559 70.6725 143.479 71.6324V71.629Z" fill="#F9BD25"/>
<path d="M119.92 50.2734C119.637 49.9792 119.199 49.8641 118.799 49.9696C109.227 52.4444 103.631 44.6363 105.289 38.1327C105.446 37.5188 106.26 37.3205 106.727 37.7682L112.049 42.8681C112.476 43.2774 113.17 43.2774 113.607 42.8681L118.175 38.4844C118.602 38.0751 118.602 37.41 118.175 36.9912L112.733 31.7761C112.276 31.3381 112.476 30.6091 113.087 30.4076C119.093 28.438 128.425 33.7426 125.689 43.3701C125.579 43.7634 125.689 44.1758 126.006 44.4444C126.096 44.5212 128.118 46.2862 127.995 46.1774L121.542 52L119.923 50.2766L119.92 50.2734Z" fill="#F9BD25"/>
<path d="M135.65 41L140.865 46.3731C140.908 46.4174 140.95 46.4616 141 46.5058L116.369 73.4361C114.467 75.5016 111.323 75.505 109.415 73.5416C107.49 71.5509 107.532 68.308 109.524 66.3752L135.647 41H135.65Z" fill="#F9BD25"/>
<path d="M148.815 51.6491L146.602 49.4649C146.082 48.9523 146.082 48.1215 146.602 47.609L147.216 47.0026C147.905 46.3226 148.034 45.2171 147.42 44.4734C146.71 43.6192 145.434 43.5723 144.663 44.3327L143.974 45.0128C143.455 45.5253 142.613 45.5253 142.093 45.0128L135.355 38.363C134.571 37.5892 134.571 36.3363 135.355 35.5658L137.253 33.6931C138.295 32.6647 138.305 31.4084 137.524 30.6379C135.243 28.3834 132.432 26.4203 129.194 24.6883C128.864 24.5108 128.98 24.0217 129.353 24.0083C132.697 23.9078 135.766 24.7252 138.624 26.2394C141.784 27.9177 143.56 29.9478 150.594 36.0884C151.167 36.5909 151.198 37.4686 150.658 38.0046L150.227 38.43C149.531 39.1168 149.395 40.239 150.02 40.9928C150.736 41.8571 152.033 41.9073 152.814 41.1368L153.381 40.5774C153.9 40.0648 154.742 40.0648 155.261 40.5774L157.651 42.9358C158.116 43.3947 158.116 44.1384 157.651 44.5974L150.499 51.6558C150.034 52.1147 149.28 52.1147 148.815 51.6558V51.6491Z" fill="#F9BD25"/>
<path d="M162.808 88H100.188C94.0182 88 89 82.5741 89 75.9088V34.3468C89 30.2605 90.8827 26.4825 94.0384 24.2418L125.35 1.99203C129.085 -0.664009 133.915 -0.664009 137.653 1.99203L168.965 24.2418C172.117 26.4825 174 30.2605 174 34.3468V75.9088C174 82.5774 168.982 88 162.812 88H162.808ZM131.5 5.44186C130.473 5.44186 129.446 5.76674 128.529 6.41652L97.2178 28.6696C95.5237 29.872 94.4695 32.0491 94.4695 34.3468V75.9088C94.4695 79.5764 97.0325 82.5607 100.185 82.5607H162.808C165.961 82.5607 168.524 79.5764 168.524 75.9088V34.3468C168.524 32.0491 167.473 29.872 165.779 28.6696L134.471 6.41652C133.554 5.76674 132.527 5.43851 131.5 5.43851V5.44186Z" fill="#F9BD25"/>
</g>
</svg>
