<svg width="85" height="85" viewBox="0 0 85 85" fill="none" xmlns="http://www.w3.org/2000/svg">
<path d="M68.0865 65.0711C71.724 68.3586 71.8615 74.0336 68.3866 77.5086C64.9115 80.9836 59.224 80.8336 55.9365 77.1836L39.7866 59.2586L49.8616 48.5586L68.0865 65.0711ZM59.7615 73.7711C61.1365 75.1336 63.3741 75.1461 64.749 73.7836C66.1365 72.3961 66.1241 70.1586 64.749 68.7836C63.3741 67.4086 61.149 67.4086 59.7615 68.7961C58.399 70.1711 58.399 72.3961 59.7615 73.7711Z" fill="#F9BD25"/>
<path d="M25.5253 43.4189C25.1128 42.9689 24.4753 42.7939 23.8878 42.9564C9.92147 46.7229 1.75645 34.8369 4.17591 24.9365C4.40406 24.0029 5.5944 23.7006 6.27398 24.3801L14.0378 32.144C14.6628 32.769 15.6753 32.769 16.3128 32.144L22.9753 25.4689C23.6003 24.8439 23.6003 23.8314 22.9753 23.1939L15.0359 15.2545C14.3694 14.588 14.6599 13.4766 15.5516 13.1714C24.3144 10.1725 37.9289 18.2494 33.9379 32.9064C33.7754 33.5064 33.9379 34.1314 34.4004 34.5439C34.5305 34.6623 37.484 37.3485 37.3004 37.1814L27.8878 46.044L25.5253 43.4189Z" fill="#F9BD25"/>
<path d="M48.9875 29.5938L56.675 37.2813C56.7375 37.3438 56.8 37.4062 56.875 37.4688L20.5625 75.9938C17.757 78.9482 13.1237 78.955 10.3125 76.1438C7.47497 73.2938 7.53754 68.6563 10.475 65.8938L48.9875 29.5938Z" fill="#F9BD25"/>
<path d="M68.0817 45.1583L64.9064 41.983C64.1613 41.2378 64.1613 40.0298 64.9064 39.2846L65.7874 38.4037C66.7736 37.4175 66.9625 35.8094 66.0795 34.73C65.064 33.4886 63.2297 33.4205 62.1245 34.5258L61.1361 35.5143C60.3909 36.2594 59.1829 36.2594 58.4377 35.5143L48.7752 25.8517C47.652 24.7285 47.651 22.9083 48.7742 21.7851L51.4931 19.0661C52.9876 17.5716 53.0039 15.7469 51.8834 14.6254C48.6118 11.3512 44.5798 8.49688 39.9371 5.97986C39.4655 5.7242 39.6306 5.00933 40.1667 4.99278C44.962 4.84508 49.3623 6.03259 53.4616 8.23688C57.9946 10.6744 60.542 13.6261 70.6263 22.5473C71.4496 23.2756 71.4943 24.5528 70.7171 25.33L70.1008 25.9462C69.1016 26.9455 68.9101 28.5749 69.8049 29.6688C70.8339 30.9267 72.6927 30.9957 73.8127 29.8757L74.6252 29.0632C75.3704 28.318 76.5784 28.318 77.3236 29.0632L80.7502 32.4898C81.4166 33.1562 81.4166 34.2365 80.7502 34.9028L70.4947 45.1583C69.8284 45.8246 68.7481 45.8246 68.0817 45.1583Z" fill="#F9BD25"/>
</svg>
