<svg width="306" height="79" viewBox="0 0 306 79" fill="none" xmlns="http://www.w3.org/2000/svg">
<path d="M79 36.942V64.3171C79 72.4234 72.445 79 64.3578 79H45.8098V55.1795H51.4522C54.5407 55.1795 57.3465 53.8752 59.3726 51.7513C61.3953 49.6376 62.6552 46.7181 62.6552 43.4879H27.8918C24.7931 43.4879 21.994 44.7991 19.9713 46.9127C17.9384 49.0264 16.6853 51.9561 16.6853 55.1795H33.5341V79H14.6422C6.55496 79 0 72.4234 0 64.3171V36.942C0 32.7591 1.78091 28.7742 4.88983 25.9879L29.7476 3.73134C35.3048 -1.24378 43.6986 -1.24378 49.2524 3.73134L74.1102 25.9879C77.2225 28.7742 79 32.7591 79 36.942Z" fill="#E9E9E9"/>
<path d="M118.345 71.3158C103.813 71.3158 98 63.379 98 48.0526V29.9895H107.801V37.5158H118.345V46.2737H107.801V49.6263C107.801 57.7 110.302 61.4632 118.345 61.4632V71.3158Z" fill="#E9E9E9"/>
<path d="M121.695 54.8947C121.695 43.0579 128.792 36.4211 139.471 36.4211C150.151 36.4211 157.248 43.5368 157.248 54.2105L157.315 71.3158H147.447V64.1316H146.839V64.8158C146.839 68.3737 143.121 72 136.565 72C127.643 72 121.695 65.2947 121.695 54.8947ZM131.496 54.2105C131.496 59.3421 134.605 62.6947 139.404 62.6947C144.743 62.6947 147.447 59.2053 147.447 54.2105C147.447 49.0789 144.338 45.7263 139.471 45.7263C134.74 45.7263 131.496 49.1474 131.496 54.2105Z" fill="#E9E9E9"/>
<path d="M171.496 54.2105C171.496 59.2053 174.672 62.6947 179.471 62.6947C183.256 62.6947 185.352 60.779 186.366 57.9737H196.639C195.152 66.5263 188.867 72 179.471 72C168.792 72 161.695 64.8842 161.695 54.2105C161.695 43.5368 168.792 36.4211 179.471 36.4211C188.867 36.4211 195.152 41.8947 196.639 50.4474H186.366C185.352 47.6421 183.256 45.7263 179.471 45.7263C174.672 45.7263 171.496 49.1474 171.496 54.2105Z" fill="#E9E9E9"/>
<path d="M201.035 71.3158V20H210.836V56.2632L223.543 37.1053H234.56L223.746 52.7737L238.007 71.3158H226.584L218.338 60.5737L210.836 71.3158H201.035Z" fill="#E9E9E9"/>
<path d="M241.763 66.8C241.763 63.6526 243.993 61.5316 247.373 61.5316C250.685 61.5316 252.915 63.6526 252.915 66.8C252.915 69.9474 250.685 72 247.373 72C243.993 72 241.763 69.9474 241.763 66.8Z" fill="#E9E9E9"/>
<path d="M257.339 71.3158V20H267.207V71.3158H257.339Z" fill="#E9E9E9"/>
<path d="M281.465 55.3053C281.465 59.6842 284.371 62.6263 288.764 62.6263C293.225 62.6263 296.199 59.6842 296.199 55.3053V37.1053H306V54.7579C306 65.0895 299.241 72 288.967 72C278.423 72 271.596 65.0895 271.596 54.7579V37.1053H281.465V55.3053Z" fill="#E9E9E9"/>
</svg>
