<svg width="621" height="199" viewBox="0 0 621 199" fill="none" xmlns="http://www.w3.org/2000/svg">
<path d="M101.428 115.116C94.5793 112.391 85.6765 109.594 74.7552 106.761C65.2396 104.618 58.247 102.475 53.7415 100.368C49.2721 98.2251 47.0013 95.0286 47.0013 90.7787C47.0013 87.219 48.407 84.4221 51.2545 82.388C54.0659 80.3539 58.1029 79.3368 63.4013 79.3368C69.5648 79.3368 74.5389 80.8261 78.3235 83.8409C82.1081 86.8558 84.3429 90.9604 85.0637 96.082H126.803C125.217 80.8261 119.089 68.585 108.456 59.3588C97.7873 50.1326 83.2255 45.5195 64.6989 45.5195C52.1917 45.5195 41.4145 47.5537 32.3314 51.6219C23.2844 55.7265 16.4 61.2477 11.7503 68.2581C7.06462 75.2686 4.7578 83.0418 4.7578 91.5779C4.7578 101.676 7.28088 109.703 12.3991 115.66C17.5174 121.617 23.5727 125.976 30.6374 128.701C37.6659 131.461 46.4967 134.076 57.0576 136.583C66.8976 139.053 74.0343 141.305 78.4677 143.339C82.8651 145.409 85.0637 148.533 85.0637 152.819C85.0637 156.343 83.5138 159.249 80.4501 161.464C77.3503 163.68 72.989 164.806 67.3662 164.806C61.2026 164.806 56.0123 163.208 51.7591 160.012C47.542 156.815 45.1631 152.638 44.6224 147.48H0C0.684835 157.069 3.96484 165.714 9.76791 173.451C15.571 181.152 23.5007 187.254 33.5209 191.686C43.5771 196.117 55.0391 198.333 67.8708 198.333C79.8734 198.333 90.3982 196.371 99.4453 192.485C104.239 190.414 108.456 187.944 112.061 185.038L122.225 132.26C121.432 130.916 120.531 129.645 119.522 128.446C114.331 122.308 108.312 117.876 101.428 115.116Z" fill="#F5F6F6"/>
<path d="M289.781 47.6263V68.6577C285.568 61.7562 279.519 56.1623 271.706 51.9125C263.858 47.6263 254.748 45.5195 244.379 45.5195C232.246 45.5195 221.228 48.607 211.399 54.8184C208.663 56.5619 206.071 58.4871 203.658 60.6302L185.332 155.725C186.124 157.868 187.024 159.975 188.032 162.009C193.757 173.633 201.534 182.569 211.399 188.889C221.228 195.173 232.138 198.333 244.127 198.333C254.496 198.333 263.605 196.19 271.418 191.94C279.267 187.69 285.388 182.096 289.781 175.158V196.19H334.894V47.6263H289.781ZM280.42 148.824C274.155 155.398 266.558 158.668 257.557 158.668C248.556 158.668 240.995 155.326 234.73 148.679C228.501 142.031 225.369 133.023 225.369 121.654C225.369 110.285 228.501 101.385 234.73 94.8833C240.995 88.4177 248.592 85.1849 257.557 85.1849C266.522 85.1849 274.155 88.454 280.42 95.0286C286.648 101.603 289.781 110.575 289.781 121.908C289.781 133.241 286.648 142.249 280.42 148.824Z" fill="#F5F6F6"/>
<path d="M371.485 191.649C361.491 187.218 353.647 181.116 347.844 173.415C342.077 165.678 338.817 157.033 338.137 147.444H382.518C383.055 152.602 385.419 156.779 389.61 159.975C393.801 163.172 398.959 164.77 405.084 164.77C410.672 164.77 415.006 163.68 418.087 161.428C421.132 159.212 422.672 156.343 422.672 152.783C422.672 148.533 420.487 145.373 416.117 143.339C411.747 141.305 404.654 139.053 394.84 136.546C384.344 134.076 375.569 131.461 368.584 128.701C361.563 125.94 355.545 121.617 350.459 115.66C345.372 109.703 342.829 101.676 342.829 91.5779C342.829 83.0418 345.157 75.3049 349.778 68.2944C354.399 61.284 361.241 55.7265 370.267 51.6582C379.294 47.59 390.004 45.5195 402.434 45.5195C420.809 45.5195 435.28 50.1326 445.883 59.3588C456.486 68.585 462.539 80.8261 464.116 96.1183H422.636C421.92 90.9604 419.699 86.8921 415.938 83.8773C412.177 80.8624 407.233 79.3368 401.108 79.3368C395.843 79.3368 391.831 80.3539 389.037 82.388C386.243 84.4221 384.846 87.219 384.846 90.7787C384.846 95.0286 387.067 98.2251 391.544 100.368C396.022 102.511 402.971 104.618 412.427 106.761C423.281 109.594 432.128 112.391 438.934 115.152C445.776 117.912 451.758 122.344 456.916 128.483C462.074 134.621 464.76 142.83 464.939 153.11C464.939 161.791 462.539 169.565 457.704 176.393C452.904 183.222 445.991 188.598 436.964 192.485C427.937 196.371 417.478 198.333 405.586 198.333C392.798 198.333 381.443 196.117 371.449 191.686L371.485 191.649Z" fill="#F5F6F6"/>
<path d="M605.716 63.1451C615.892 74.2926 620.998 89.6473 620.998 109.137V195.081H576.195V115.215C576.195 105.362 573.642 97.7383 568.536 92.2724C563.43 86.8425 556.598 84.1096 547.969 84.1096C539.339 84.1096 532.507 86.8425 527.401 92.2724C522.295 97.7383 519.742 105.362 519.742 115.215V195.081H474.688V0H519.742V67.7479C524.309 61.2392 530.529 56.0611 538.44 52.2134C546.351 48.3657 555.232 46.4239 565.048 46.4239C581.913 46.4239 595.433 51.9976 605.644 63.1451H605.716Z" fill="#F5F6F6"/>
<path d="M164.464 198.333H120.301L157.456 3.25195H201.585L164.464 198.333Z" fill="#F5F6F6"/>
</svg>
